/* XPM */
static char *result[] = {
/* columns rows colors chars-per-pixel */
"50 50 144 2 ",
"   c black",
".  c #010101",
"X  c #020202",
"o  c gray1",
"O  c #040404",
"+  c #060606",
"@  c gray3",
"#  c #090909",
"$  c gray4",
"%  c #0B0B0B",
"&  c #0C0C0C",
"*  c gray5",
"=  c #0E0E0E",
"-  c gray6",
";  c gray7",
":  c gray8",
">  c #151515",
",  c #161616",
"<  c #191919",
"1  c #1B1B1B",
"2  c #1E1E1E",
"3  c gray12",
"4  c #222222",
"5  c #232323",
"6  c #252525",
"7  c gray15",
"8  c #272727",
"9  c #282828",
"0  c gray17",
"q  c #2C2C2C",
"w  c #2F2F2F",
"e  c gray20",
"r  c #353535",
"t  c gray21",
"y  c gray22",
"u  c #3A3A3A",
"i  c gray23",
"p  c #3C3C3C",
"a  c gray24",
"s  c #3E3E3E",
"d  c #414141",
"f  c gray26",
"g  c #434343",
"h  c #444444",
"j  c gray28",
"k  c #484848",
"l  c #494949",
"z  c #4C4C4C",
"x  c gray30",
"c  c #515151",
"v  c #535353",
"b  c gray33",
"n  c gray34",
"m  c #585858",
"M  c gray35",
"N  c #5A5A5A",
"B  c #5D5D5D",
"V  c gray37",
"C  c #5F5F5F",
"Z  c gray38",
"A  c gray39",
"S  c #646464",
"D  c #656565",
"F  c gray40",
"G  c #676767",
"H  c #6A6A6A",
"J  c #6C6C6C",
"K  c gray43",
"L  c gray45",
"P  c #797979",
"I  c #7B7B7B",
"U  c #7E7E7E",
"Y  c gray50",
"T  c #818181",
"R  c gray51",
"E  c #838383",
"W  c #848484",
"Q  c gray52",
"!  c gray53",
"~  c gray54",
"^  c #8B8B8B",
"/  c gray55",
"(  c #8D8D8D",
")  c #8E8E8E",
"_  c gray57",
"`  c #929292",
"'  c gray58",
"]  c #959595",
"[  c #9A9A9A",
"{  c #9D9D9D",
"}  c #A0A0A0",
"|  c gray63",
" . c #A2A2A2",
".. c gray65",
"X. c #A7A7A7",
"o. c #A9A9A9",
"O. c #AAAAAA",
"+. c gray67",
"@. c #ACACAC",
"#. c gray68",
"$. c #AFAFAF",
"%. c #B1B1B1",
"&. c gray70",
"*. c #B7B7B7",
"=. c #B9B9B9",
"-. c #BBBBBB",
";. c gray",
":. c gray75",
">. c #C0C0C0",
",. c gray79",
"<. c #CBCBCB",
"1. c gray80",
"2. c #CDCDCD",
"3. c gray81",
"4. c #D0D0D0",
"5. c gray82",
"6. c #D2D2D2",
"7. c gray83",
"8. c #D7D7D7",
"9. c gainsboro",
"0. c #DFDFDF",
"q. c gray89",
"w. c gray90",
"e. c #E6E6E6",
"r. c #E7E7E7",
"t. c #E9E9E9",
"y. c gray92",
"u. c #ECECEC",
"i. c gray93",
"p. c #EEEEEE",
"a. c #F1F1F1",
"s. c gray95",
"d. c #F3F3F3",
"f. c gray96",
"g. c #F6F6F6",
"h. c gray97",
"j. c #F8F8F8",
"k. c #F9F9F9",
"l. c gray98",
"z. c #FBFBFB",
"x. c gray99",
"c. c #FDFDFD",
"v. c #FEFEFE",
"b. c white",
/* pixels */
"b.b.b.b.b.b.b.b.b.b.b.b.b.b.b.b.b.b.b.b.b.b.b.b.b.b.b.b.b.b.b.b.b.b.b.b.b.b.b.b.b.b.b.b.b.b.b.b.b.b.",
"b.b.b.b.b.b.b.b.b.b.b.b.b.b.b.b.b.b.b.b.b.b.b.b.b.b.b.b.b.b.b.b.b.b.b.b.b.b.b.b.b.b.b.b.b.b.b.b.b.b.",
"b.b.b.b.b.b.b.b.b.b.b.b.b.b.b.b.b.b.b.b.b.b.b.b.b.b.b.b.b.b.b.b.b.b.b.b.b.b.b.b.b.b.b.b.b.b.b.b.b.b.",
"b.b.b.b.b.b.b.b.b.b.b.b.b.b.b.b.b.b.b.b.b.b.b.b.b.b.b.b.b.b.b.b.b.b.b.b.b.b.b.b.b.b.b.b.b.b.b.b.b.b.",
"b.b.b.b.b.b.b.b.b.b.b.b.b.b.b.b.b.b.b.b.b.b.b.b.b.b.b.b.b.b.b.b.b.b.b.b.b.b.b.b.b.b.b.b.b.b.b.b.b.b.",
"b.b.b.b.b.b.b.b.b.b.b.b.b.b.b.b.b.b.b.b.b.b.b.b.b.b.b.b.b.b.b.b.b.b.b.b.b.b.b.b.b.b.b.b.b.b.b.b.b.b.",
"b.b.b.b.b.b.b.b.b.b.b.b.b.b.b.b.b.b.b.b.b.b.b.b.b.b.b.b.b.b.b.b.b.b.b.b.b.b.b.b.b.b.b.b.b.b.b.b.b.b.",
"b.b.b.b.b.b.b.b.b.b.b.b.b.b.b.b.b.b.b.b.b.b.b.b.b.b.b.b.b.b.b.b.b.b.b.b.b.b.b.b.b.b.b.b.b.b.b.b.b.b.",
"b.b.b.b.b.b.b.b.b.b.b.b.b.b.b.b.b.b.b.b.v.v.c.v.v.v.v.b.b.b.b.b.b.b.b.b.b.b.b.b.b.b.b.b.b.b.b.b.b.b.",
"b.b.b.b.b.b.b.b.b.b.b.b.b.b.b.b.b.b.b.v.b.s.( J <.v.v.b.b.b.b.b.b.b.b.b.b.b.b.b.b.b.b.b.b.b.b.b.b.b.",
"b.b.b.b.b.b.b.b.b.b.b.b.b.b.b.b.b.b.b.v.c.D X . = 0.v.b.v.b.b.b.b.b.b.b.b.b.b.b.b.b.b.b.b.b.b.b.b.b.",
"b.b.b.b.b.b.b.b.b.b.b.b.b.b.b.b.b.b.b.v.v.q        .v.g.4.j.v.v.b.b.b.b.b.b.b.b.b.b.b.b.b.b.b.b.b.b.",
"b.b.b.b.b.b.b.b.b.b.b.b.b.b.b.b.b.b.b.c.c.6       [ c.W X Y v.v.v.b.b.b.b.b.b.b.b.b.b.b.b.b.b.b.b.b.",
"b.b.b.b.b.b.b.b.b.b.b.b.b.b.b.b.b.b.b.v.c.4       ' c.L   f c.v.v.b.b.b.b.b.b.b.b.b.b.b.b.b.b.b.b.b.",
"b.b.b.b.b.b.b.b.b.b.b.b.b.b.b.b.b.b.b.b.v.2       _ c.` . < v.v.b.b.b.b.b.b.b.b.b.b.b.b.b.b.b.b.b.b.",
"b.b.b.b.b.b.b.b.b.b.b.b.b.b.b.b.b.b.b.v.v.<       ( c.X.  o w.b.b.b.b.b.b.b.b.b.b.b.b.b.b.b.b.b.b.b.",
"b.b.b.b.b.b.b.b.b.b.b.b.b.b.b.b.v.c.x.v.v.>     . ~ c.$.. . >.b.b.b.b.b.b.b.b.b.b.b.b.b.b.b.b.b.b.b.",
"b.b.b.b.b.b.b.b.b.b.b.b.b.b.b.b.l.b x h.v.;     . ! c.o.. . #.b.v.b.b.b.b.b.b.b.b.b.b.b.b.b.b.b.b.b.",
"b.b.b.b.b.b.b.b.b.b.b.b.b.b.b.v.7.o . 9.x.=     . E x.] .   %.v.b.b.b.b.b.b.b.b.b.b.b.b.b.b.b.b.b.b.",
"b.b.b.b.b.b.b.b.b.b.b.b.b.b.b.c.(   O a.k.%     . U z.H . . 3.v.b.b.b.b.b.b.b.b.b.b.b.b.b.b.b.b.b.b.",
"b.b.b.b.b.b.b.b.b.b.b.b.b.b.b.c.V . 8 v.g.@       p U &   : j.v.b.b.b.b.b.b.b.b.b.b.b.b.b.b.b.b.b.b.",
"b.b.b.b.b.b.b.b.b.b.b.b.b.b.v.c.d . u c.d.O         .   . N c.v.b.b.b.b.b.b.b.b.b.b.b.b.b.b.b.b.b.b.",
"b.b.b.b.b.b.b.b.b.b.b.b.b.b.v.z.w   i c.p..           X 7 q.c.v.v.b.b.b.b.b.b.b.b.b.b.b.b.b.b.b.b.b.",
"b.b.b.b.b.b.b.b.b.b.b.b.b.v.b.z.0   5 c.t.        3 c R e.,.U g.v.b.b.b.b.b.b.b.b.b.b.b.b.b.b.b.b.b.",
"b.b.b.b.b.b.b.b.b.b.b.b.b.b.v.c.y   O i.q.      . K x.=.f.k X | b.b.b.b.b.b.b.b.b.b.b.b.b.b.b.b.b.b.",
"b.b.b.b.b.b.b.b.b.b.b.b.b.v.v.c.M     { 1.      . H f.- ,.a   ] v.b.b.b.b.b.b.b.b.b.b.b.b.b.b.b.b.b.",
"b.b.b.b.b.b.b.b.b.b.b.b.b.b.v.v.o..   . o       . D 6.o y.r   / v.v.b.b.b.b.b.b.b.b.b.b.b.b.b.b.b.b.",
"b.b.b.b.b.b.b.b.b.b.b.b.b.b.b.b.l.t             . Z ;.X u.w   Q @.-.v.b.b.b.b.b.b.b.b.b.b.b.b.b.b.b.",
"b.b.b.b.b.b.b.b.b.b.b.b.b.b.b.b.v.r.v & .         B <.. *.9   T P m c.b.b.b.b.b.b.b.b.b.b.b.b.b.b.b.",
"b.b.b.b.b.b.b.b.b.b.b.b.b.b.b.b.v.v.v.h.%..       n h.6 O   . I ' t x.b.b.b.b.b.b.b.b.b.b.b.b.b.b.b.",
"b.b.b.b.b.b.b.b.b.b.b.b.b.b.b.b.b.b.b.v.:..       c c.7.S %   L ^ q z.b.b.b.b.b.b.b.b.b.b.b.b.b.b.b.",
"b.b.b.b.b.b.b.b.b.b.b.b.b.b.b.b.b.b.b.b.=..       z v.v.c., . v p h c.b.b.b.b.b.b.b.b.b.b.b.b.b.b.b.",
"b.b.b.b.b.b.b.b.b.b.b.b.b.b.b.b.b.b.b.v.&.        j c.v.c.;   . # O.c.b.b.b.b.b.b.b.b.b.b.b.b.b.b.b.",
"b.b.b.b.b.b.b.b.b.b.b.b.b.b.b.b.b.b.b.b.+.        d v.b.z.* . l 8.c.v.b.b.b.b.b.b.b.b.b.b.b.b.b.b.b.",
"b.b.b.b.b.b.b.b.b.b.b.b.b.b.b.b.b.b.b.b...        s c.b.h.# . G x.c.v.v.b.b.b.b.b.b.b.b.b.b.b.b.b.b.",
"b.b.b.b.b.b.b.b.b.b.b.b.b.b.b.b.v.v.v.v.}         i c.c.d.+ . A x.v.v.b.b.b.b.b.b.b.b.b.b.b.b.b.b.b.",
"b.b.b.b.b.b.b.b.b.b.b.b.b.b.b.b.v.c.s.6.F .       $ e k F o . C c.c.v.b.b.b.b.b.b.b.b.b.b.b.b.b.b.b.",
"b.b.b.b.b.b.b.b.b.b.b.b.b.b.v.z.2.S 1 o .           .         - D 1.z.v.b.b.b.b.b.b.b.b.b.b.b.b.b.b.",
"b.b.b.b.b.b.b.b.b.b.b.v.v.c.5.g + .                             . + g 5.x.v.b.b.b.b.b.b.b.b.b.b.b.b.",
"b.b.b.b.b.b.b.b.b.b.b.v.x.) % .   .                                   % ) x.b.b.b.b.b.b.b.b.b.b.b.b.",
"b.b.b.b.b.b.b.b.b.b.b.v.,.S Z Z Z Z Z Z Z Z Z Z Z Z Z Z Z Z Z Z Z Z Z Z A ,.v.b.b.b.b.b.b.b.b.b.b.b.",
"b.b.b.b.b.b.b.b.b.b.b.v.c.c.v.v.v.v.v.v.v.v.v.v.v.v.v.v.v.v.v.v.v.v.v.c.x.c.b.b.b.b.b.b.b.b.b.b.b.b.",
"b.b.b.b.b.b.b.b.b.b.v.v.v.v.b.b.b.b.b.b.b.b.b.b.b.b.b.b.b.b.b.b.b.b.b.v.v.v.b.b.b.b.b.b.b.b.b.b.b.b.",
"b.b.b.b.b.b.b.b.b.b.b.b.v.v.b.b.b.b.b.b.b.b.b.b.b.b.b.b.b.b.b.b.b.b.b.b.b.v.b.b.b.b.b.b.b.b.b.b.b.b.",
"b.b.b.b.b.b.b.b.b.b.b.b.b.b.b.b.b.b.b.b.b.b.b.b.b.b.b.b.b.b.b.b.b.b.b.b.b.b.b.b.b.b.b.b.b.b.b.b.b.b.",
"b.b.b.b.b.b.b.b.b.b.b.b.b.b.b.b.b.b.b.b.b.b.b.b.b.b.b.b.b.b.b.b.b.b.b.b.b.b.b.b.b.b.b.b.b.b.b.b.b.b.",
"b.b.b.b.b.b.b.b.b.b.b.b.b.b.b.b.b.b.b.b.b.b.b.b.b.b.b.b.b.b.b.b.b.b.b.b.b.b.b.b.b.b.b.b.b.b.b.b.b.b.",
"b.b.b.b.b.b.b.b.b.b.b.b.b.b.b.b.b.b.b.b.b.b.b.b.b.b.b.b.b.b.b.b.b.b.b.b.b.b.b.b.b.b.b.b.b.b.b.b.b.b.",
"b.b.b.b.b.b.b.b.b.b.b.b.b.b.b.b.b.b.b.b.b.b.b.b.b.b.b.b.b.b.b.b.b.b.b.b.b.b.b.b.b.b.b.b.b.b.b.b.b.b.",
"b.b.b.b.b.b.b.b.b.b.b.b.b.b.b.b.b.b.b.b.b.b.b.b.b.b.b.b.b.b.b.b.b.b.b.b.b.b.b.b.b.b.b.b.b.b.b.b.b.b."
};
