/* XPM */
static char *result[] = {
/* columns rows colors chars-per-pixel */
"50 50 125 2 ",
"   c black",
".  c #010101",
"X  c #020202",
"o  c gray1",
"O  c #040404",
"+  c gray2",
"@  c #060606",
"#  c #070707",
"$  c gray3",
"%  c gray4",
"&  c #0B0B0B",
"*  c gray5",
"=  c gray7",
"-  c #181818",
";  c #1D1D1D",
":  c #202020",
">  c #232323",
",  c #252525",
"<  c #2A2A2A",
"1  c gray19",
"2  c gray21",
"3  c #393939",
"4  c #3A3A3A",
"5  c gray23",
"6  c #3C3C3C",
"7  c gray24",
"8  c #3E3E3E",
"9  c #3F3F3F",
"0  c gray27",
"q  c #494949",
"w  c #4B4B4B",
"e  c #4C4C4C",
"r  c #4E4E4E",
"t  c gray31",
"y  c #515151",
"u  c gray32",
"i  c #555555",
"p  c #585858",
"a  c #5B5B5B",
"s  c #5D5D5D",
"d  c gray37",
"f  c gray38",
"g  c gray39",
"h  c gray40",
"j  c DimGray",
"k  c #6A6A6A",
"l  c gray43",
"z  c gray46",
"x  c gray49",
"c  c #7E7E7E",
"v  c gray50",
"b  c #818181",
"n  c gray51",
"m  c #838383",
"M  c #868686",
"N  c #888888",
"B  c #8B8B8B",
"V  c gray55",
"C  c #939393",
"Z  c gray59",
"A  c #9A9A9A",
"S  c gray61",
"D  c #9F9F9F",
"F  c gray63",
"G  c #A4A4A4",
"H  c gray65",
"J  c gray66",
"K  c #A9A9A9",
"L  c #AAAAAA",
"P  c gray67",
"I  c gray68",
"U  c #AEAEAE",
"Y  c #AFAFAF",
"T  c gray69",
"R  c #B1B1B1",
"E  c #B2B2B2",
"W  c #B4B4B4",
"Q  c gray71",
"!  c gray72",
"~  c #B9B9B9",
"^  c gray73",
"/  c #BBBBBB",
"(  c #BCBCBC",
")  c gray74",
"_  c gray75",
"`  c gray76",
"'  c gray77",
"]  c #C5C5C5",
"[  c #C8C8C8",
"{  c #CBCBCB",
"}  c gray80",
"|  c #CDCDCD",
" . c gray81",
".. c gray83",
"X. c #D7D7D7",
"o. c #D8D8D8",
"O. c gray85",
"+. c #DADADA",
"@. c gainsboro",
"#. c #DDDDDD",
"$. c gray87",
"%. c #DFDFDF",
"&. c #E1E1E1",
"*. c #E2E2E2",
"=. c #E4E4E4",
"-. c #E7E7E7",
";. c #E9E9E9",
":. c #EAEAEA",
">. c gray92",
",. c gray93",
"<. c #EEEEEE",
"1. c gray94",
"2. c #F1F1F1",
"3. c gray95",
"4. c #F3F3F3",
"5. c #F4F4F4",
"6. c gray97",
"7. c #F8F8F8",
"8. c #F9F9F9",
"9. c gray98",
"0. c #FBFBFB",
"q. c gray99",
"w. c #FDFDFD",
"e. c #FEFEFE",
"r. c white",
/* pixels */
"r.r.r.r.r.r.r.r.r.r.r.r.r.r.r.r.r.r.r.r.r.r.r.r.r.r.r.r.r.r.r.r.r.r.r.r.r.r.r.r.r.r.r.r.r.r.r.r.r.r.",
"r.r.r.r.r.r.r.r.r.r.r.r.r.r.r.r.r.r.r.r.r.r.r.r.r.r.r.r.r.r.r.r.r.r.r.r.r.r.r.r.r.r.r.r.r.r.r.r.r.r.",
"r.r.r.r.r.r.r.r.r.r.r.r.r.r.r.r.r.r.r.r.r.r.r.r.r.r.r.r.r.r.r.r.r.r.r.r.r.r.r.r.r.r.r.r.r.r.r.r.r.r.",
"r.r.r.r.r.r.r.r.r.r.r.r.r.r.r.r.r.r.r.r.r.r.r.r.r.r.r.r.r.r.r.r.r.r.r.r.r.r.r.r.r.r.r.r.r.r.r.r.r.r.",
"r.r.r.r.r.r.r.r.r.r.r.r.r.r.r.r.r.r.r.r.r.r.r.r.r.r.r.r.r.r.r.r.r.r.r.r.r.r.r.r.r.r.r.r.r.r.r.r.r.r.",
"r.r.r.r.r.r.r.r.r.r.r.r.r.r.r.r.r.r.r.r.r.r.r.e.e.e.e.e.r.r.r.r.r.r.r.r.r.r.r.r.r.r.r.r.r.r.r.r.r.r.",
"r.r.r.r.r.r.r.r.r.r.r.r.r.r.r.r.r.r.r.r.r.r.r.e.e.e.e.e.r.r.r.r.r.r.r.r.r.r.r.r.r.r.r.r.r.r.r.r.r.r.",
"r.r.r.r.r.r.r.r.r.r.r.r.r.r.r.r.r.r.r.r.r.r.w.q.w.w.,.8.r.r.r.r.r.r.r.r.r.r.r.r.r.r.r.r.r.r.r.r.r.r.",
"r.r.r.r.r.r.r.r.r.r.r.r.r.r.r.r.r.r.r.r.e.w.| Z s t w o.0.e.e.r.r.r.r.r.r.r.r.r.r.r.r.r.r.r.r.r.r.r.",
"r.r.r.r.r.r.r.r.r.r.r.r.r.r.r.r.r.r.r.r.e.:.7 .   . . * l 2.e.r.r.r.r.r.r.r.r.r.r.r.r.r.r.r.r.r.r.r.",
"r.r.r.r.r.r.r.r.r.r.r.r.r.r.r.r.r.r.r.r.q.y .           O ] w.r.r.r.r.r.r.r.r.r.r.r.r.r.r.r.r.r.r.r.",
"r.r.r.r.r.r.r.r.r.r.r.r.r.r.r.r.r.r.r.e. .o               d w.r.r.r.r.r.r.r.r.r.r.r.r.r.r.r.r.r.r.r.",
"r.r.r.r.r.r.r.r.r.r.r.r.r.r.r.r.r.r.r.e.P .               : e.r.r.r.r.r.r.r.r.r.r.r.r.r.r.r.r.r.r.r.",
"r.r.r.r.r.r.r.r.r.r.r.r.e.e.e.e.e.e.r.w.K .             . ; w.e.r.e.e.e.r.r.r.r.r.r.r.r.r.r.r.r.r.r.",
"r.r.r.r.r.r.r.r.r.r.r.r.e.e.q...` w.q.w.P X               , 7.e.e.r.e.e.e.r.r.r.r.r.r.r.r.r.r.r.r.r.",
"r.r.r.r.r.r.r.r.r.r.r.r.e.$.q + O 9 T 3.U .               - *.e.e.w.q.e.e.r.r.r.r.r.r.r.r.r.r.r.r.r.",
"r.r.r.r.r.r.r.r.r.r.r.e.4.0 .     . < q.T .               1 w.e.w.Q c ~ w.e.r.r.r.r.r.r.r.r.r.r.r.r.",
"r.r.r.r.r.r.r.r.r.r.r.e.) @         . &.E                 2 e.q.v X . . g w.e.r.r.r.r.r.r.r.r.r.r.r.",
"r.r.r.r.r.r.r.r.r.r.r.r.1.o         . O.W                 7 e.Y #     .   D w.r.r.r.r.r.r.r.r.r.r.r.",
"r.r.r.r.r.r.r.r.r.r.r.r.1.o         . o.V                 5 w.P           b w.r.r.r.r.r.r.r.r.r.r.r.",
"r.r.r.r.r.r.r.r.r.r.r.r.+.O           o.~ .               3 5.K           n e.r.r.r.r.r.r.r.r.r.r.r.",
"r.r.r.r.r.r.r.r.r.r.r.e./ o           O.^   .             u e.J           n e.r.r.r.r.r.r.r.r.r.r.r.",
"r.r.r.r.r.r.r.r.r.r.r.r.1.o           O.P .               p e.J           n e.r.r.r.r.r.r.r.r.r.r.r.",
"r.r.r.r.r.r.r.r.r.r.r.r.=.+         . } A . .             s e.K           j q.r.r.r.r.r.r.r.r.r.r.r.",
"r.r.r.r.r.r.r.r.r.r.r.e.[ =         . h ` .               g w.K .         z 9.r.r.r.r.r.r.r.r.r.r.r.",
"r.r.r.r.r.r.r.r.r.r.r.r.q.e         . + r .               k w.c .         n e.r.r.r.r.r.r.r.r.r.r.r.",
"r.r.r.r.r.r.r.r.r.r.r.r.w.I X       . .   .             . j e.F X         n e.r.r.r.r.r.r.r.r.r.r.r.",
"r.r.r.r.r.r.r.r.r.r.r.r.w.q.i .                           p 6.K .         n w.r.r.r.r.r.r.r.r.r.r.r.",
"r.r.r.r.r.r.r.r.r.r.r.r.e.e.,.8                         . x w.S           a 0.r.r.r.r.r.r.r.r.r.r.r.",
"r.r.r.r.r.r.r.r.r.r.r.r.e.w.e.,.d .                     . M w.f .       . J q.r.r.r.r.r.r.r.r.r.r.r.",
"r.r.r.r.r.r.r.r.r.r.r.r.r.r.r.w.q.! w X . .             X B L &     .   $ ;.e.r.r.r.r.r.r.r.r.r.r.r.",
"r.r.r.r.r.r.r.r.r.r.r.r.r.r.e.e.w.e.w.%.C o               > +   .     . q w.r.r.r.r.r.r.r.r.r.r.r.r.",
"r.r.r.r.r.r.r.r.r.r.r.r.r.r.e.e.e.e.e.w./ X                       .   @ _ w.e.r.r.r.r.r.r.r.r.r.r.r.",
"r.r.r.r.r.r.r.r.r.r.r.r.r.r.r.r.r.r.r.e.( o                   .     . m e.r.r.r.r.r.r.r.r.r.r.r.r.r.",
"r.r.r.r.r.r.r.r.r.r.r.r.r.r.r.r.r.r.r.r.X.o .                   . $ N w.r.r.r.r.r.r.r.r.r.r.r.r.r.r.",
"r.r.r.r.r.r.r.r.r.r.r.r.r.r.r.r.r.r.r.r.+.O .             . . % u { w.e.r.r.r.r.r.r.r.r.r.r.r.r.r.r.",
"r.r.r.r.r.r.r.r.r.r.r.r.r.r.r.r.r.r.r.r.R o             . q A >.e.e.r.r.r.r.r.r.r.r.r.r.r.r.r.r.r.r.",
"r.r.r.r.r.r.r.r.r.r.r.r.r.r.r.r.r.r.r.r.@.O             . G w.e.e.e.r.r.r.r.r.r.r.r.r.r.r.r.r.r.r.r.",
"r.r.r.r.r.r.r.r.r.r.r.r.r.r.r.r.r.r.r.r.%.+             . H e.r.r.r.r.r.r.r.r.r.r.r.r.r.r.r.r.r.r.r.",
"r.r.r.r.r.r.r.r.r.r.r.r.r.r.r.r.r.r.r.r.~ o             . K e.r.r.r.r.r.r.r.r.r.r.r.r.r.r.r.r.r.r.r.",
"r.r.r.r.r.r.r.r.r.r.r.r.r.r.r.r.r.r.r.r.#.+             . I e.r.r.r.r.r.r.r.r.r.r.r.r.r.r.r.r.r.r.r.",
"r.r.r.r.r.r.r.r.r.r.r.r.r.r.r.r.r.r.r.r.-.+ .           . R e.r.r.r.r.r.r.r.r.r.r.r.r.r.r.r.r.r.r.r.",
"r.r.r.r.r.r.r.r.r.r.r.r.r.r.r.r.r.r.r.r.<.6 4 4 4 4 4 4 5 ' e.r.r.r.r.r.r.r.r.r.r.r.r.r.r.r.r.r.r.r.",
"r.r.r.r.r.r.r.r.r.r.r.r.r.r.r.r.r.r.r.r.e.w.w.w.w.w.w.w.w.e.e.r.r.r.r.r.r.r.r.r.r.r.r.r.r.r.r.r.r.r.",
"r.r.r.r.r.r.r.r.r.r.r.r.r.r.r.r.r.r.r.r.r.r.r.r.r.r.r.r.r.r.r.r.r.r.r.r.r.r.r.r.r.r.r.r.r.r.r.r.r.r.",
"r.r.r.r.r.r.r.r.r.r.r.r.r.r.r.r.r.r.r.r.r.r.r.r.r.r.r.r.r.r.r.r.r.r.r.r.r.r.r.r.r.r.r.r.r.r.r.r.r.r.",
"r.r.r.r.r.r.r.r.r.r.r.r.r.r.r.r.r.r.r.r.r.r.r.r.r.r.r.r.r.r.r.r.r.r.r.r.r.r.r.r.r.r.r.r.r.r.r.r.r.r.",
"r.r.r.r.r.r.r.r.r.r.r.r.r.r.r.r.r.r.r.r.r.r.r.r.r.r.r.r.r.r.r.r.r.r.r.r.r.r.r.r.r.r.r.r.r.r.r.r.r.r.",
"r.r.r.r.r.r.r.r.r.r.r.r.r.r.r.r.r.r.r.r.r.r.r.r.r.r.r.r.r.r.r.r.r.r.r.r.r.r.r.r.r.r.r.r.r.r.r.r.r.r.",
"r.r.r.r.r.r.r.r.r.r.r.r.r.r.r.r.r.r.r.r.r.r.r.r.r.r.r.r.r.r.r.r.r.r.r.r.r.r.r.r.r.r.r.r.r.r.r.r.r.r."
};
