/* XPM */
static char *result[] = {
/* columns rows colors chars-per-pixel */
"50 50 189 2 ",
"   c black",
".  c #010101",
"X  c #020202",
"o  c gray1",
"O  c #040404",
"+  c gray2",
"@  c #060606",
"#  c #070707",
"$  c gray3",
"%  c #090909",
"&  c gray4",
"*  c #0B0B0B",
"=  c #0C0C0C",
"-  c gray5",
";  c #0E0E0E",
":  c gray6",
">  c #101010",
",  c gray7",
"<  c #131313",
"1  c gray8",
"2  c #151515",
"3  c #161616",
"4  c gray9",
"5  c #181818",
"6  c #191919",
"7  c gray10",
"8  c #1B1B1B",
"9  c gray11",
"0  c #1D1D1D",
"q  c #1E1E1E",
"w  c gray12",
"e  c #202020",
"r  c gray13",
"t  c #232323",
"y  c gray14",
"u  c #252525",
"i  c gray15",
"p  c #282828",
"a  c gray16",
"s  c gray17",
"d  c #2D2D2D",
"f  c gray18",
"g  c #2F2F2F",
"h  c #313131",
"j  c #323232",
"k  c gray20",
"l  c #343434",
"z  c gray21",
"x  c gray22",
"c  c #393939",
"v  c gray23",
"b  c gray24",
"n  c #3F3F3F",
"m  c gray25",
"M  c #414141",
"N  c gray26",
"B  c #434343",
"V  c gray27",
"C  c #464646",
"Z  c #494949",
"A  c #4C4C4C",
"S  c gray30",
"D  c #515151",
"F  c #555555",
"G  c gray34",
"H  c #585858",
"J  c gray35",
"K  c #5A5A5A",
"L  c #5B5B5B",
"P  c gray36",
"I  c #5D5D5D",
"U  c #5F5F5F",
"Y  c gray38",
"T  c #626262",
"R  c gray39",
"E  c #656565",
"W  c #676767",
"Q  c #686868",
"!  c gray42",
"~  c #6C6C6C",
"^  c #6D6D6D",
"/  c gray44",
"(  c #727272",
")  c gray45",
"_  c #747474",
"`  c #767676",
"'  c #777777",
"]  c gray47",
"[  c #797979",
"{  c gray48",
"}  c #7B7B7B",
"|  c #7C7C7C",
" . c gray49",
".. c #818181",
"X. c gray51",
"o. c #838383",
"O. c #848484",
"+. c gray52",
"@. c #898989",
"#. c gray54",
"$. c #8B8B8B",
"%. c gray55",
"&. c #8D8D8D",
"*. c gray56",
"=. c #909090",
"-. c #929292",
";. c #939393",
":. c gray58",
">. c #959595",
",. c #9A9A9A",
"<. c #9B9B9B",
"1. c gray61",
"2. c #9D9D9D",
"3. c #9F9F9F",
"4. c #A0A0A0",
"5. c gray63",
"6. c gray65",
"7. c gray66",
"8. c #A9A9A9",
"9. c #AAAAAA",
"0. c gray67",
"q. c gray68",
"w. c #AEAEAE",
"e. c gray69",
"r. c #B1B1B1",
"t. c #B2B2B2",
"y. c gray70",
"u. c #B4B4B4",
"i. c gray71",
"p. c #B6B6B6",
"a. c #B7B7B7",
"s. c gray72",
"d. c gray73",
"f. c #BCBCBC",
"g. c gray",
"h. c #C0C0C0",
"j. c #C1C1C1",
"k. c gray76",
"l. c #C3C3C3",
"z. c gray77",
"x. c #C6C6C6",
"c. c gray78",
"v. c gray79",
"b. c #CACACA",
"n. c #CBCBCB",
"m. c gray80",
"M. c #CDCDCD",
"N. c gray81",
"B. c #D0D0D0",
"V. c #D2D2D2",
"C. c LightGray",
"Z. c #D5D5D5",
"A. c gray84",
"S. c #D7D7D7",
"D. c gray86",
"F. c gainsboro",
"G. c gray87",
"H. c #DFDFDF",
"J. c gray88",
"K. c #E1E1E1",
"L. c #E2E2E2",
"P. c gray89",
"I. c #E4E4E4",
"U. c gray90",
"Y. c #E6E6E6",
"T. c #E7E7E7",
"R. c gray91",
"E. c #E9E9E9",
"W. c gray92",
"Q. c #ECECEC",
"!. c gray93",
"~. c #EEEEEE",
"^. c #EFEFEF",
"/. c gray94",
"(. c #F1F1F1",
"). c gray95",
"_. c #F3F3F3",
"`. c #F4F4F4",
"'. c gray96",
"]. c #F6F6F6",
"[. c gray97",
"{. c #F8F8F8",
"}. c #F9F9F9",
"|. c gray98",
" X c #FBFBFB",
".X c gray99",
"XX c #FDFDFD",
"oX c #FEFEFE",
"OX c white",
/* pixels */
"OXOXOXOXOXOXOXOXOXOXOXOXOXOXOXOXOXOXOXoXoXXXoXoXoXoXoXOXoXOXoXOXOXOXOXOXOXOXOXOXOXOXOXOXOXOXOXOXOXOX",
"OXOXOXOXOXOXOXOXOXOXOXOXOXOXOXOXOXOXOXOXXX X.XXXoXXXoXoXoXoXOXOXOXOXOXOXOXOXOXOXOXOXOXOXOXOXOXOXOXOX",
"OXOXOXOXOXOXOXOXOXOXOXOXOXOXOXOXOXOXOXoX(./ +.c.Q.}..XoXoXoXoXOXOXOXOXOXOXOXOXOXOXOXOXOXOXOXOXOXOXOX",
"OXOXOXOXOXOXOXOXOXOXOXOXOXOXOXOXOXOXOXXXc.o X o t I 3.S./..X.XOXOXOXOXOXOXOXOXOXOXOXOXOXOXOXOXOXOXOX",
"OXOXOXOXOXOXOXOXOXOXOXOXOXOXOXoXOXoXOXXX1.X       . . = x ] a.'.XXoXXXOXOXOXOXOXOXOXOXOXOXOXOXOXOXOX",
"OXOXOXOXOXOXOXOXOXOXOXOXOXOXOXOXOXoXoX.X^             .   o u E.}.oXoXOXOXOXOXOXOXOXOXOXOXOXOXOXOXOX",
"OXOXOXOXOXOXOXOXOXOXOXOXOXOXOXOXOXOXoX'.M .           . . # 0.].{ '.oXOXOXOXOXOXOXOXOXOXOXOXOXOXOXOX",
"OXOXOXOXOXOXOXOXOXOXOXOXOXOXOXOXoXoXoXW.9 .           . . J [.>.O <.oXOXOXoXOXOXOXOXOXOXOXOXOXOXOXOX",
"OXOXOXOXOXOXOXOXOXOXOXOXOXOXOXOXoXoXoXB.O             . 4 C.d.< . t ^.oXOXoXoXOXOXOXOXOXOXOXOXOXOXOX",
"OXOXOXOXOXOXOXOXOXOXOXOXOXOXOXoXoXoXXXt..             . ) n.r     X #..XOXOXoXOXOXOXOXOXOXOXOXOXOXOX",
"OXOXOXOXOXOXOXOXOXOXOXOXOXOXoXoXXX)..X*..             3 w.d .     . q U.oXoXOXOXOXOXOXOXOXOXOXOXOXOX",
"OXOXOXOXOXOXOXOXOXOXOXOXOXOXoXH.| } .XE .             f s . .   .   X { oXoXoXOXOXOXOXOXOXOXOXOXOXOX",
"OXOXOXOXOXOXOXOXOXOXOXoXXXXX~.p O ,.].v .             o X             5 D.oXoXOXOXOXOXOXOXOXOXOXOXOX",
"OXOXOXOXOXOXOXOXOXOXOXoXoX.X6.+ o z.Q.<                               X @.XXOXOXOXOXOXOXOXOXOXOXOXOX",
"OXOXOXOXOXOXOXOXOXOXOXoXoX.XD X o Y.k.X                               X ;.XXoXOXOXOXOXOXOXOXOXOXOXOX",
"OXOXOXOXOXOXOXOXOXOXOXoXXXP.,   < |.x.: .                             @ e.oXoXOXOXOXoXOXOXOXOXOXOXOX",
"OXOXOXOXOXOXOXOXOXOXOXoXXX,.o . X ! `.s.> .                           = B.XX.X.X.X.XoXOXOXoXOXOXOXOX",
"OXOXOXOXOXOXOXOXOXOXOXoX.XV .     X h v.q.;                           > E.x.k j j Z K.oXOXOXOXOXOXOX",
"OXOXOXOXOXOXOXOXOXOXOXoXJ.< .       X & ' $.#                         6 ].2.o X . X -.oXOXOXOXOXOXOX",
"OXOXOXOXOXoXOXoXoXoXoXoXe.$ .           X p i                         y  X` .     . V `.oXOXOXOXOXOX",
"OXOXOXoXXXXXoXXX].B.l..XT .             .                             a [.A .       , B.XXoXOXOXOXOX",
"OXOXOXOXXXXX Xh.G > w.I.w .                 .                         a W.t .       . @.XXoXOXOXOXOX",
"OXOXOXOXoXXXG.w X 9 G.>.O                   .                         q x.O           b /.oXoXOXOXOX",
"OXOXOXOXoXXX4.o . n U.z                                               ; ~ .           * v.oXoXOXOXOX",
"OXOXOXOXoX`.S . . W 1.@                                               o ;   .         .  ..XoXOXOXOX",
"OXOXOXOXoXZ.1   . _ f                                                   .             . k ~.oXOXOXOX",
"OXOXOXOXXX&.. . . 0 o                                 . . X X         . . . .         . # h.XXOXOXOX",
"oXOXOXoX(.b                                       .   0 %.=.[ -   .                     . / .XoXXXoX",
"OXOXOXoXb.&                       . . w 2 X X   . . c m.|..X XX.o   .                 . . a !.XXoXoX",
"OXOXOX.X{ .                         % l.P.x.,.~ n R P.XXXXoXXX].C . .                   . o s.XXoXOX",
"oXOXoX~.d                         X M  XoXXX.X X_.].oXoXoXoXXXXXF.3 .                 . . X E |.oXXX",
"oXoXXXf.o                         o 5.oXOXOXOXOXoXoXOXOXOXOXoXoXXX9..   X X . X X X .   . o q Q.oXoX",
"oXoX|.W                           6 (.oXOXOXOXOXOXOXOXOXOXOXOXoXXX.XW 8 j.I.V.g.7.;.[ Y S z e p.XXoX",
"XXOXW.9 o X X                   X ( XXoXOXOXOXOXOXOXOXOXOXOXOXoXXX.X/.N._.7.p.n.H.).|..X.XXXXX XoXXX",
"oXoXD.Q F m f 9 > & % # O .     + Z.XXOXOXOXOXOXOXOXOXOXOXOXOXoXoXoXXX_.P X X X . # 7 f V L _ t.XXoX",
"oXoX'.`.{.|.XX.X(.J.M.d.4.N % o V XXoXoXOXOXOXOXOXOXOXOXOXOXOXoXOXoX`.U o .         . .       K  XOX",
"oX X/ k B F ~ ..:.8.f.N.T.].u.n q.XXXXoXOXOXOXOXOXOXOXOXOXOXOXXXoX`.Y X .                     K  XOX",
"oX|.L X .   . X X X . X q o.J.[.{.oXoXoXOXOXOXOXOXOXOXOXOXOXOXXXXX=..   . .                   K  XOX",
"OX XK                     . q +.[.XXoXoXOXOXOXOXOXOXOXOXOXOXOXoXXXG .                         K  XOX",
"OX XK                       . X 1.oXoXoXOXOXOXOXOXOXOXOXOXOXOXoXXXg .                         K  XOX",
"OX XK                         . 3 G.XXoXOXOXOXOXOXOXOXOXOXOXOXoX].-                           K  XOX",
"OX XK                           X F }.oXOXOXOXOXOXOXOXOXOXOXOXXXA.X                           K  XOX",
"OX XK                             @ 6.XXoXoXOXOXOXOXOXOXOXOXOXXXe..                           K  XOX",
"OX XK                               t L.XXoXoXOXOXOXOXOXOXOXOXXXO..                           K  XOX",
"OX XK                           .   o Y  XoXoXOXOXOXOXOXOXOXOXXXK                             K  XOX",
"OX XK                             . . = r.XXXXoXOXOXOXOXOXOXOXXXl X                           K  XOX",
"oX XK                               .   g E.XXOXOXOXOXOXOXOXoX`., .                           J  XoX",
"oXXXu.H H H H H H H H H H H H H H H H G K y.XXOXOXOXOXOXOXOXoXR.L G H H H H H H H H H H H H H i.XXoX",
"XXXXXX|.|.|.|.|.|.|.|.|.|.|.|.|.|.|.|.}.|..XoXoXOXOXOXOXOXOXOXXX}.|.}.|.|.|.|.|.|.|.|.|.|.|. XXXoX.X",
"oXXXoXoXOXOXOXOXOXOXOXOXOXOXOXOXOXOXOXoXXXXXoXOXOXOXOXOXOXOXOXoXoXoXoXOXOXOXOXOXOXOXOXOXOXOXoXoXoXoX"
};
