/* XPM */
static char *result[] = {
/* columns rows colors chars-per-pixel */
"50 50 137 2 ",
"   c black",
".  c #010101",
"X  c #020202",
"o  c gray1",
"O  c #040404",
"+  c gray2",
"@  c #060606",
"#  c #070707",
"$  c gray3",
"%  c #090909",
"&  c gray4",
"*  c #0B0B0B",
"=  c #0C0C0C",
"-  c gray5",
";  c #0E0E0E",
":  c gray6",
">  c #101010",
",  c #111111",
"<  c #151515",
"1  c gray9",
"2  c #181818",
"3  c #191919",
"4  c #1B1B1B",
"5  c gray11",
"6  c #1D1D1D",
"7  c #1E1E1E",
"8  c #202020",
"9  c gray13",
"0  c #222222",
"q  c #232323",
"w  c gray14",
"e  c #252525",
"r  c gray15",
"t  c #272727",
"y  c #282828",
"u  c gray16",
"i  c #2A2A2A",
"p  c #2F2F2F",
"a  c gray19",
"s  c gray20",
"d  c #393939",
"f  c gray23",
"g  c gray24",
"h  c #3E3E3E",
"j  c #434343",
"k  c gray27",
"l  c gray28",
"z  c gray30",
"x  c #4E4E4E",
"c  c #515151",
"v  c gray32",
"b  c gray33",
"n  c #585858",
"m  c gray35",
"M  c gray36",
"N  c #5D5D5D",
"B  c gray38",
"V  c #626262",
"C  c #646464",
"Z  c #656565",
"A  c gray40",
"S  c #686868",
"D  c DimGray",
"F  c #6C6C6C",
"G  c #6D6D6D",
"H  c gray44",
"J  c gray45",
"K  c #747474",
"L  c #767676",
"P  c #7B7B7B",
"I  c #7E7E7E",
"U  c gray50",
"Y  c gray53",
"T  c #888888",
"R  c #8B8B8B",
"E  c #8E8E8E",
"W  c gray56",
"Q  c #909090",
"!  c #929292",
"~  c #939393",
"^  c gray58",
"/  c #989898",
"(  c gray60",
")  c #9B9B9B",
"_  c gray61",
"`  c #9F9F9F",
"'  c gray65",
"]  c #A7A7A7",
"[  c #ACACAC",
"{  c gray68",
"}  c #AEAEAE",
"|  c #AFAFAF",
" . c gray69",
".. c #B1B1B1",
"X. c #B2B2B2",
"o. c gray70",
"O. c #B6B6B6",
"+. c #B7B7B7",
"@. c gray72",
"#. c #BBBBBB",
"$. c gray75",
"%. c gray76",
"&. c #C3C3C3",
"*. c gray77",
"=. c gray78",
"-. c gray79",
";. c #CBCBCB",
":. c gray82",
">. c gray85",
",. c #DADADA",
"<. c gray86",
"1. c gainsboro",
"2. c #DDDDDD",
"3. c gray87",
"4. c #DFDFDF",
"5. c #E2E2E2",
"6. c #EAEAEA",
"7. c #ECECEC",
"8. c gray93",
"9. c #EEEEEE",
"0. c #EFEFEF",
"q. c gray94",
"w. c #F1F1F1",
"e. c gray95",
"r. c #F3F3F3",
"t. c #F4F4F4",
"y. c gray96",
"u. c #F6F6F6",
"i. c gray97",
"p. c #F8F8F8",
"a. c #F9F9F9",
"s. c gray98",
"d. c #FBFBFB",
"f. c gray99",
"g. c #FDFDFD",
"h. c #FEFEFE",
"j. c white",
/* pixels */
"j.j.h.g.g.h.h.h.h.h.h.h.h.h.h.h.h.h.h.h.h.g.g.g.g.j.j.j.j.j.j.j.j.j.j.j.j.j.j.j.j.j.j.j.j.j.j.j.j.j.",
"j.j.h.s.i.p.a.a.a.a.a.a.a.a.a.a.a.a.a.a.a.p.a.s.d.h.h.h.j.j.j.j.j.j.j.j.j.j.j.j.j.j.j.j.j.j.j.j.j.j.",
"j.h.s.s.a. .W E W W W W W W W W W W E W E -.d.s.a.f.g.j.j.j.j.j.j.j.j.j.j.j.j.j.j.j.j.j.j.j.j.j.j.j.",
"j.g.u.s.f.c o X . . . . . . . . . X X X . T h.p.i.s.d.j.j.j.j.j.j.j.j.j.j.j.j.j.j.j.j.j.j.j.j.j.j.j.",
"f.f.d.} m 6 .                     .       a n n M t.a.h.j.j.j.j.j.j.j.j.j.j.j.j.j.j.j.j.j.j.j.j.j.j.",
"d.f.g.Y .                         . * %     . + = w.i.g.j.j.j.j.j.j.j.j.j.j.j.j.j.j.j.j.j.j.j.j.j.j.",
"s.d.h.Y                       . . 5 :.~ X     + = w.p.h.j.j.j.j.j.j.j.j.j.j.j.j.j.j.j.j.j.j.j.j.j.j.",
"s.d.h.T                         . 7 ,.( . .   O = w.p.h.j.j.j.j.j.j.j.j.j.j.j.j.j.j.j.j.j.j.j.j.j.j.",
"s.d.h.T                           X $ @ .     O = w.p.h.j.j.j.j.j.j.j.j.j.j.j.j.j.j.j.j.j.j.j.j.j.j.",
"s.d.h.T                                       O = w.p.h.j.j.j.j.j.j.j.j.j.j.j.j.j.j.j.j.j.j.j.j.j.j.",
"s.d.h.T                                       O = w.p.h.j.j.j.j.j.j.j.j.j.j.j.j.j.j.j.j.j.j.j.j.j.j.",
"s.d.h.T                                       O = w.p.h.j.j.j.j.j.j.j.j.j.j.j.j.j.j.j.j.j.j.j.j.j.j.",
"s.d.h.T                                       O = w.p.h.j.j.j.j.j.j.j.j.j.j.j.j.j.j.j.j.j.j.j.j.j.j.",
"s.d.h.Y                                       O = w.p.h.j.j.j.j.j.j.j.j.j.j.j.j.j.j.j.j.j.j.j.j.j.j.",
"s.d.g.R & & & & & & & & & & O                 O = w.i.h.j.j.j.j.j.j.j.j.j.j.j.j.j.j.j.j.j.j.j.j.j.j.",
"h.f.i.e.6.9.0.0.9.9.9.9.7.6.l                 O = q.i.h.j.j.j.j.j.j.j.j.j.j.j.j.j.j.j.j.j.j.j.j.j.j.",
"h.f.p.p.p.s.f.;.*.*.*.*.&.%.f   .             + * e.p.f.g.h.h.j.j.h.j.j.j.j.j.j.j.h.g.h.h.h.h.h.j.j.",
"j.j.h.h.h.f.p.0 X . . . X X .   .             + = i.f.u.s.h.j.j.j.j.j.j.j.j.j.j.h.d.f.h.h.h.g.g.h.j.",
"j.j.j.h.h.s.i.I F F F F G G F S , .           o # E ] a.d.g.f.f.h.j.j.j.j.j.j.j.h.f.8.^ ..f.d.s.g.j.",
"j.j.j.h.h.p.y.f.g.g.g.h.g.g.f.0.w                 X f f.f.d.a.p.g.h.j.j.h.j.j.j.h.h.1.@ v g.s.u.f.j.",
"j.j.j.j.h.g.f.h.h.d.s.p.u.u.d.0.w                   < b c v *.u.a.a.h.h.h.h.h.a.p.g.2.# c g.s.u.f.j.",
"j.j.j.j.j.h.j.j.h.s.s.i.i.u.s.9.w .                   . . X [ p.i.i.h.h.h.h.h.p.u.f.1.@ c g.s.u.f.j.",
"j.j.j.h.j.h.j.j.g.i.O.7 4 4 4 4 +                         . < 7 3.a.e.y.g.a.y.a.q.d 3 X c g.s.u.f.j.",
"j.j.j.j.j.j.j.j.g.u. .@ O . X X                             . + $.<.w.y.s.i.y.5.:.8 X . c g.s.u.f.j.",
"j.j.j.j.j.j.j.j.g.u.| @ o . X o                               . O e 0.i.6.e.s.x # X   X c g.s.u.f.j.",
"j.j.j.j.j.j.j.j.g.u.| + o   j M ;                               X 2 / @.q.=.` s + .   . c g.s.u.f.j.",
"j.j.j.j.j.j.j.j.g.u.| + o X ..0.w .                               X O z i.U # . .     . c g.s.u.f.j.",
"j.j.j.j.j.j.j.j.h.p.3._ ) ( 4.0.w                                   . 6 B s . .       . c g.s.u.f.j.",
"j.j.j.j.j.j.j.j.h.d.a.y.t.e.s.q.w                                       .             . c g.s.u.f.j.",
"j.j.j.j.j.j.j.j.h.h.g.g.d.a.f.q.w                                                     X c f.s.u.f.j.",
"j.j.j.j.j.j.j.j.j.j.j.j.d.s.f.q.w                                                   O 1 N g.s.i.f.j.",
"j.j.j.j.j.j.j.j.j.j.j.j.f.s.g.q.w .                                               . 9 s.g.h.f.g.h.j.",
"j.j.j.j.j.j.j.j.j.j.j.j.g.f.d.r.Z k .   .                                 . .   O k C s.j.j.h.g.h.j.",
"j.j.j.j.j.j.j.j.j.j.j.j.h.j.p.u.d.1.O .                                       . ; >.g.h.j.j.j.j.j.j.",
"j.j.j.j.j.j.j.j.j.j.j.j.h.h.d.d.h.0.Q V X                                   . A ! 7.f.g.g.j.j.j.j.j.",
"j.j.j.j.j.j.j.j.j.j.j.j.j.j.j.j.j.h.f.{ .                                   X X.g.f.f.g.g.j.j.j.j.j.",
"j.j.j.j.j.j.j.j.j.j.j.j.j.j.j.h.d.d.s.[ X                               X . X | a.d.d.h.h.j.j.j.j.j.",
"j.j.j.j.j.j.j.j.j.j.j.j.j.j.j.h.s.s.a.| - @ .                           X $ - o.i.d.d.h.j.j.j.j.j.j.",
"j.j.j.j.j.j.j.j.j.j.j.j.j.j.j.h.h.g.a.y.q.H .       . # O       . . X + = P 7.y.p.g.h.j.j.j.j.j.j.j.",
"j.j.j.j.j.j.j.j.j.j.j.j.j.j.j.h.j.g.s.a.p.K .     . : h 8         % d f g ( y.p.a.h.j.j.j.j.j.j.j.j.",
"j.j.j.j.j.j.j.j.j.j.j.j.j.j.j.j.j.j.j.f.i.K .   . . d f.Y   . . . w 0.f.p.a.p.g.h.j.j.j.j.j.j.j.j.j.",
"j.j.j.j.j.j.j.j.j.j.j.j.j.j.j.j.j.j.j.f.p.J . X # H Q d.#.J r .   e q.f.u.a.d.g.j.j.j.j.j.j.j.j.j.j.",
"j.j.j.j.j.j.j.j.j.j.j.j.j.j.j.j.j.j.h.f.p.K . + = u.f.p.d.f.v o . e q.f.i.d.j.h.j.j.j.j.j.j.j.j.j.j.",
"j.j.j.j.j.j.j.j.j.j.j.j.j.j.j.j.j.g.p.a.d.L . + = r.a.f.g.g.%.' 2 w q.f.i.d.h.h.j.j.j.j.j.j.j.j.j.j.",
"j.j.j.j.j.j.j.j.j.j.j.j.j.j.j.j.h.g.u.u.i.K . + = e.p.h.g.h.p.r.9 w q.f.i.d.h.j.j.j.j.j.j.j.j.j.j.j.",
"j.j.j.j.j.j.j.j.j.j.j.j.j.j.j.j.j.h.p.+.q >   + = w.p.h.h.g.A q @ w w.f.i.d.h.j.j.j.j.j.j.j.j.j.j.j.",
"j.j.j.j.j.j.j.j.j.j.j.j.j.j.j.h.h.h.a.@.y t y i p e.p.h.h.g.D u y k e.f.i.d.h.j.j.j.j.j.j.j.j.j.j.j.",
"j.j.j.j.j.j.j.j.j.j.j.j.j.j.j.h.j.g.a.u.e.e.e.e.e.u.p.h.j.h.y.e.e.r.g.f.i.s.h.h.j.j.j.j.j.j.j.j.j.j.",
"j.j.j.j.j.j.j.j.j.j.j.j.j.j.j.h.j.g.s.s.f.f.f.f.d.a.a.j.h.f.f.f.f.f.f.s.a.d.j.h.j.j.j.j.j.j.j.j.j.j.",
"j.j.j.j.j.j.j.j.j.j.j.j.j.j.j.j.j.h.d.a.u.i.i.i.u.g.h.h.f.a.p.i.i.i.u.a.j.h.j.j.j.j.j.j.j.j.j.j.j.j."
};
