/* XPM */
static char *result[] = {
/* columns rows colors chars-per-pixel */
"50 50 137 2 ",
"   c black",
".  c #010101",
"X  c #020202",
"o  c gray1",
"O  c #040404",
"+  c gray2",
"@  c #060606",
"#  c #070707",
"$  c gray3",
"%  c #090909",
"&  c gray4",
"*  c #0B0B0B",
"=  c #0C0C0C",
"-  c gray5",
";  c #0E0E0E",
":  c gray6",
">  c #101010",
",  c #111111",
"<  c #151515",
"1  c gray9",
"2  c #181818",
"3  c #191919",
"4  c #1B1B1B",
"5  c gray11",
"6  c #1D1D1D",
"7  c #1E1E1E",
"8  c #202020",
"9  c gray13",
"0  c #222222",
"q  c #232323",
"w  c gray14",
"e  c #252525",
"r  c gray15",
"t  c #272727",
"y  c #282828",
"u  c gray16",
"i  c #2A2A2A",
"p  c #2F2F2F",
"a  c gray19",
"s  c gray20",
"d  c #393939",
"f  c gray23",
"g  c gray24",
"h  c #3E3E3E",
"j  c #434343",
"k  c gray27",
"l  c gray28",
"z  c gray30",
"x  c #4E4E4E",
"c  c #515151",
"v  c gray32",
"b  c gray33",
"n  c #585858",
"m  c gray35",
"M  c gray36",
"N  c #5D5D5D",
"B  c gray38",
"V  c #626262",
"C  c #646464",
"Z  c #656565",
"A  c gray40",
"S  c #686868",
"D  c DimGray",
"F  c #6C6C6C",
"G  c #6D6D6D",
"H  c gray44",
"J  c gray45",
"K  c #747474",
"L  c #767676",
"P  c #7B7B7B",
"I  c #7E7E7E",
"U  c gray50",
"Y  c gray53",
"T  c #888888",
"R  c #8B8B8B",
"E  c #8E8E8E",
"W  c gray56",
"Q  c #909090",
"!  c #929292",
"~  c #939393",
"^  c gray58",
"/  c #989898",
"(  c gray60",
")  c #9B9B9B",
"_  c gray61",
"`  c #9F9F9F",
"'  c gray65",
"]  c #A7A7A7",
"[  c #ACACAC",
"{  c gray68",
"}  c #AEAEAE",
"|  c #AFAFAF",
" . c gray69",
".. c #B1B1B1",
"X. c #B2B2B2",
"o. c gray70",
"O. c #B6B6B6",
"+. c #B7B7B7",
"@. c gray72",
"#. c #BBBBBB",
"$. c gray75",
"%. c gray76",
"&. c #C3C3C3",
"*. c gray77",
"=. c gray78",
"-. c gray79",
";. c #CBCBCB",
":. c gray82",
">. c gray85",
",. c #DADADA",
"<. c gray86",
"1. c gainsboro",
"2. c #DDDDDD",
"3. c gray87",
"4. c #DFDFDF",
"5. c #E2E2E2",
"6. c #EAEAEA",
"7. c #ECECEC",
"8. c gray93",
"9. c #EEEEEE",
"0. c #EFEFEF",
"q. c gray94",
"w. c #F1F1F1",
"e. c gray95",
"r. c #F3F3F3",
"t. c #F4F4F4",
"y. c gray96",
"u. c #F6F6F6",
"i. c gray97",
"p. c #F8F8F8",
"a. c #F9F9F9",
"s. c gray98",
"d. c #FBFBFB",
"f. c gray99",
"g. c #FDFDFD",
"h. c #FEFEFE",
"j. c white",
/* pixels */
"j.j.j.j.j.j.j.j.j.j.j.j.j.j.j.j.j.j.j.j.j.j.j.j.j.g.g.g.g.h.h.h.h.h.h.h.h.h.h.h.h.h.h.h.h.g.g.h.j.j.",
"j.j.j.j.j.j.j.j.j.j.j.j.j.j.j.j.j.j.j.j.j.j.h.h.h.d.s.a.p.a.a.a.a.a.a.a.a.a.a.a.a.a.a.a.p.i.s.h.j.j.",
"j.j.j.j.j.j.j.j.j.j.j.j.j.j.j.j.j.j.j.j.j.j.j.g.f.a.s.d.-.E W E W W W W W W W W W W E W  .a.s.s.h.j.",
"j.j.j.j.j.j.j.j.j.j.j.j.j.j.j.j.j.j.j.j.j.j.j.d.s.i.p.h.T . X X X . . . . . . . . . X o c f.s.u.g.j.",
"j.j.j.j.j.j.j.j.j.j.j.j.j.j.j.j.j.j.j.j.j.j.h.a.t.M n n a       .                     . 6 m } d.f.f.",
"j.j.j.j.j.j.j.j.j.j.j.j.j.j.j.j.j.j.j.j.j.j.g.i.w.= + .     % * .                         . Y g.f.d.",
"j.j.j.j.j.j.j.j.j.j.j.j.j.j.j.j.j.j.j.j.j.j.h.p.w.= +     X ~ :.5 . .                       Y h.d.s.",
"j.j.j.j.j.j.j.j.j.j.j.j.j.j.j.j.j.j.j.j.j.j.h.p.w.= O   . . ( ,.7 .                         T h.d.s.",
"j.j.j.j.j.j.j.j.j.j.j.j.j.j.j.j.j.j.j.j.j.j.h.p.w.= O     . @ $ X                           T h.d.s.",
"j.j.j.j.j.j.j.j.j.j.j.j.j.j.j.j.j.j.j.j.j.j.h.p.w.= O                                       T h.d.s.",
"j.j.j.j.j.j.j.j.j.j.j.j.j.j.j.j.j.j.j.j.j.j.h.p.w.= O                                       T h.d.s.",
"j.j.j.j.j.j.j.j.j.j.j.j.j.j.j.j.j.j.j.j.j.j.h.p.w.= O                                       T h.d.s.",
"j.j.j.j.j.j.j.j.j.j.j.j.j.j.j.j.j.j.j.j.j.j.h.p.w.= O                                       T h.d.s.",
"j.j.j.j.j.j.j.j.j.j.j.j.j.j.j.j.j.j.j.j.j.j.h.p.w.= O                                       Y h.d.s.",
"j.j.j.j.j.j.j.j.j.j.j.j.j.j.j.j.j.j.j.j.j.j.h.i.w.= O                 O & & & & & & & & & & R g.d.s.",
"j.j.j.j.j.j.j.j.j.j.j.j.j.j.j.j.j.j.j.j.j.j.h.i.q.= O                 l 6.7.9.9.9.9.0.0.9.6.e.i.f.h.",
"j.j.h.h.h.h.h.g.h.j.j.j.j.j.j.j.h.j.j.h.h.g.f.p.e.* +             .   f %.&.*.*.*.*.;.f.s.p.p.p.f.h.",
"j.h.g.g.h.h.h.f.d.h.j.j.j.j.j.j.j.j.j.j.h.s.u.f.i.= +             .   . X X . . . X 0 p.f.h.h.h.j.j.",
"j.g.s.d.f...^ 8.f.h.j.j.j.j.j.j.j.h.f.f.g.d.a.] E # o           . , S F G G F F F F I i.s.h.h.j.j.j.",
"j.f.u.s.g.v @ 1.h.h.j.j.j.h.j.j.h.g.p.a.d.f.f.f X                 w 0.f.g.g.h.g.g.g.f.y.p.h.h.j.j.j.",
"j.f.u.s.g.c # 2.g.p.a.h.h.h.h.h.a.a.u.*.v c b <                   w 0.d.u.u.p.s.d.h.h.f.g.h.j.j.j.j.",
"j.f.u.s.g.c @ 1.f.u.p.h.h.h.h.h.i.i.p.[ X . .                   . w 9.s.u.i.i.s.s.h.j.j.h.j.j.j.j.j.",
"j.f.u.s.g.c X 3 d q.a.y.a.g.y.e.a.3.7 < .                         + 4 4 4 4 7 O.i.g.j.j.h.j.h.j.j.j.",
"j.f.u.s.g.c . X 8 :.5.y.i.s.y.w.<.$.+ .                             X X . O @  .u.g.j.j.j.j.j.j.j.j.",
"j.f.u.s.g.c X   X # x s.e.6.i.0.e O .                               o X . o @ | u.g.j.j.j.j.j.j.j.j.",
"j.f.u.s.g.c .   . + s ` =.q.@./ 2 X                               ; M j   o + | u.g.j.j.j.j.j.j.j.j.",
"j.f.u.s.g.c .     . . # U i.z O .                               . w 0...X o + | u.g.j.j.j.j.j.j.j.j.",
"j.f.u.s.g.c .       . . s B 6 .                                   w 0.4.( ) _ 3.p.h.j.j.j.j.j.j.j.j.",
"j.f.u.s.g.c .             .                                       w q.s.e.t.y.a.d.h.j.j.j.j.j.j.j.j.",
"j.f.u.s.f.c X                                                     w q.f.a.d.g.g.h.h.j.j.j.j.j.j.j.j.",
"j.f.i.s.g.N 1 O                                                   w q.f.s.d.j.j.j.j.j.j.j.j.j.j.j.j.",
"j.h.g.f.h.g.s.9 .                                               . w q.g.s.f.j.j.j.j.j.j.j.j.j.j.j.j.",
"j.h.g.h.j.j.s.C k O   . .                                 .   . k Z r.d.f.g.j.j.j.j.j.j.j.j.j.j.j.j.",
"j.j.j.j.j.j.h.g.>.; .                                       . O 1.d.u.p.j.h.j.j.j.j.j.j.j.j.j.j.j.j.",
"j.j.j.j.j.g.g.f.7.! A .                                   X V Q 0.h.d.d.h.h.j.j.j.j.j.j.j.j.j.j.j.j.",
"j.j.j.j.j.g.g.f.f.g.X.X                                   . { f.h.j.j.j.j.j.j.j.j.j.j.j.j.j.j.j.j.j.",
"j.j.j.j.j.h.h.d.d.a.| X . X                               X [ s.d.d.h.j.j.j.j.j.j.j.j.j.j.j.j.j.j.j.",
"j.j.j.j.j.j.h.d.d.i.o.- $ X                           . @ - | a.s.s.h.j.j.j.j.j.j.j.j.j.j.j.j.j.j.j.",
"j.j.j.j.j.j.j.h.g.p.y.7.P = + X . .       O # .       . H q.y.a.g.h.h.j.j.j.j.j.j.j.j.j.j.j.j.j.j.j.",
"j.j.j.j.j.j.j.j.h.a.p.y.( g f d %         8 h : .     . K p.a.s.g.j.h.j.j.j.j.j.j.j.j.j.j.j.j.j.j.j.",
"j.j.j.j.j.j.j.j.j.h.g.p.a.p.f.0.w . . .   Y f.d . .   . K i.f.j.j.j.j.j.j.j.j.j.j.j.j.j.j.j.j.j.j.j.",
"j.j.j.j.j.j.j.j.j.j.g.d.a.u.f.q.e   . r J #.d.Q H # X . J p.f.j.j.j.j.j.j.j.j.j.j.j.j.j.j.j.j.j.j.j.",
"j.j.j.j.j.j.j.j.j.j.h.j.d.i.f.q.e . o v f.d.p.f.u.= + . K p.f.h.j.j.j.j.j.j.j.j.j.j.j.j.j.j.j.j.j.j.",
"j.j.j.j.j.j.j.j.j.j.h.h.d.i.f.q.w 2 ' %.g.g.f.a.r.= + . L d.a.p.g.j.j.j.j.j.j.j.j.j.j.j.j.j.j.j.j.j.",
"j.j.j.j.j.j.j.j.j.j.j.h.d.i.f.q.w 9 r.p.h.g.h.p.e.= + . K i.u.u.g.h.j.j.j.j.j.j.j.j.j.j.j.j.j.j.j.j.",
"j.j.j.j.j.j.j.j.j.j.j.h.d.i.f.w.w @ q A g.h.h.p.w.= +   > q +.p.h.j.j.j.j.j.j.j.j.j.j.j.j.j.j.j.j.j.",
"j.j.j.j.j.j.j.j.j.j.j.h.d.i.f.e.k y u D g.h.h.p.e.p i y t y @.a.h.h.h.j.j.j.j.j.j.j.j.j.j.j.j.j.j.j.",
"j.j.j.j.j.j.j.j.j.j.h.h.s.i.f.g.r.e.e.y.h.j.h.p.u.e.e.e.e.e.u.a.g.j.h.j.j.j.j.j.j.j.j.j.j.j.j.j.j.j.",
"j.j.j.j.j.j.j.j.j.j.h.j.d.a.s.f.f.f.f.f.f.h.j.a.a.d.f.f.f.f.s.s.g.j.h.j.j.j.j.j.j.j.j.j.j.j.j.j.j.j.",
"j.j.j.j.j.j.j.j.j.j.j.j.h.j.a.u.i.i.i.p.a.f.h.h.g.u.i.i.i.u.a.d.h.j.j.j.j.j.j.j.j.j.j.j.j.j.j.j.j.j."
};
