/* XPM */
static char *e57a5dd5f243483da21c90d963660b189UElxsjakx7fk7x5[] = {
/* columns rows colors chars-per-pixel */
"50 50 35 1 ",
"  c #0C0B0E",
". c #0E0E12",
"X c #100F14",
"o c #0F1014",
"O c #121215",
"+ c #151518",
"@ c #14141A",
"# c #15141A",
"$ c #17171B",
"% c #13131C",
"& c #14141C",
"* c #17171C",
"= c #18171B",
"- c #18171C",
"; c #17181D",
": c #19181B",
"> c #19191E",
", c #1C1B1F",
"< c #1D1721",
"1 c #161921",
"2 c #1B1A20",
"3 c #1C1B22",
"4 c #1C1B23",
"5 c #1B1C23",
"6 c #1D1C22",
"7 c #1E1E26",
"8 c #1F1F2A",
"9 c #201F25",
"0 c #201F29",
"q c #1F2025",
"w c #1E202A",
"e c #212025",
"r c #202027",
"t c #202129",
"y c #23232E",
/* pixels */
"yyt7qX0yttrry7*wtwwwttO6qqr977@2663673@*2322222X32",
".OoOO XO@@@O@O.OOO@@@@ OO@@OOO.O@@@@@O..OOOOOOO @@",
"7O3636>65.t7778772@3>*:*>* @@O@@@@.@O@OOOO @@O....",
"qX>2>,>32Otrr77772@2733665.263-222O32>>---.3322>--",
"O.oOO @%*@@@O ..o...o..OOO.oOX ... ....... O....  ",
"77787O78t78ww@7yttqtq52ttqqrtt@77777q7@3333222@@>>",
"OO@OO @@@@OO@.O@@@OOOOO@@@@@@@.O@@@@@O.OOOO@@OXXOO",
"6@tt7tyyt@7767777@>366663@*666r976@662;@@Oo@@OO@@O",
"7@7777777@7766777@2776663-=9979999@57652>>O7766633",
"O...X OOOO@@@..OOX..O. OXXO... ...OO.......OOO .. ",
"26572Owq87rt8@-7777772@79rr999@rrttt70@6777877@>33",
"OoOOO O@@O@@@.OO@@@@@O.@@@@@@@X@@>:>>>O:>>>@>@O@@@",
"2@22>2677o7777767--6,,2>--.>>*-*--@>>;222>O=-*@@@@",
"*O>>@-->2o662222>@@>2>>>->.>>>@@=@O332222>O>>--@*-",
"*@@@@.--*@**-OO@@@@@@O.@@@@OOO OOOO@@OXOOX....   .",
"72552O388tww7*>7q77772O3733223O6733333@333>>>2O-22",
". ... .O@XoOO...X.o...  ...... OO.OX.OOOOOXOOO.OOO",
"q*yt777t8@7777779X2777773>@2236226O667q766O7777522",
">O2>;;;*;X>222222.>222222*@2222263@6666322O622>>>>",
">***@.@@@O@*>o@*@@*@@X@*@@@@@@.->>-@@@O>>->@@O @@@",
"77777O2265677@6775777*276322>-@6322<3>O677322>X676",
"@O@@@@@@-@@@@O@@@@OOOoOOOOOOOOOOXO OXOOOOO.O.X.O..",
"8*78877wt*7wq778t6-3377772>twq97wq@99r9777O9796633",
"@.@OOOOOO.@@@@**;@XOOOOOOOO@@@@@@@O@@*@*@@.***@*@@",
"*;*@@@tr7767r@3777677>27766766X6326>>>@-@@:@@@.O@@",
"22223@9qtrq79-3888ttr>>qq99tttO9rqr776@>-@:>>2o>22",
"O.@OOOOOO .OOOO@@OO@@@O@@@ O@OO@@@.OOO.... XO..OOX",
"7@77777tt-2333233>*3553663O7777766@632>-*-O>22>>22",
"@o@@@@@@@.@OOOOOOXXOOOOO.O.O@OOOOO.O..OOOXOOOOXO@@",
"78877@7777336@>776q673>7779777.6666666@6663266O@36",
"*;;>*.>*>**->@*222>>>@@>2>>>>*.**>->-*O>--->>>.OO@",
"*o@@@@=>>>O@*@=>::O>@@@@@@X>-=>>:>@@@O@@@@O@@OO@OO",
"5@72226772-5577776-rq77766@6673777@>262>22@>--*->*",
"OOXOX.OO@O@OOX@OOOOOOOOOOX...X..........X..X..   .",
"2>2>>O3676777Ot0tr996-@3323223.2>>-->-X332>->>.@--",
"@@@@@O*@@@@*@.22222--OO**-*@-= OOOOOOO @OO@O@@.OOO",
">@->>>**-@O>@>**-*X@@->>>>O>@@=@@@.O@@@--@OO@@OOO@",
"6@222222>=@7777777@6666777O6763322@-2222>-O@@-@@@@",
"OO@O.    .....OOXX.....OOO.OOO OOOOOOO.X..OX.X ...",
">2>2>.662>->>@@633333>@rr77776.3362322O23>>->-.>2>",
"XOOOO @@@OO@OO @@@@@@O.@@@@OOO OOOOOO. XX.X  . O. ",
">@@>>>@@@@.@@@@@@@.@@@@OOO.->>2>>>O=>*>@->X>>-,>**",
"-@*2222223O222222>O>-*@@*>O6663333O--*@*>-.=>@@@@@",
"O.OOO.O@OOOOOO.OOOOO.. ...X.XO.OOO@O@@XOOOOOOO OOO",
"76632O33332>2-@562226>O-2>>>2>.232>236O>>2-->>X>>-",
"@*@@O.OOOO..OX.OOOOO@O@OOO.OOO.OOOXO.X .....XO....",
">@@@;>->>@@2566365@q7qtrqr@q76666>@,,,,366O>>>>->*",
"1@@**@@@@@O-***->>@2626766X2>->--@O>;=--->.@OOOOOo",
"OO@O.OOo.oOOOO.o.oO.Oo.OoOO@@@ @@@@Oo. OOO@*;@.O@@",
"1*11;O@21**-2**5755111@5253532.122>>2>.22>*;*;.@@@"
};
